name rise49.8558peak67.6521fall70.3087.mot
datacolumns 19
datarows 18
range 19.04326600000000 19.07159200000000
endheader
time	ground_force1_vx	ground_force1_vy	ground_force1_vz	ground_force1_px	ground_force1_py	ground_force1_pz	ground_force2_vx	ground_force2_vy	ground_force2_vz	ground_force2_px	ground_force2_py	ground_force2_pz	ground_torque1_x	ground_torque1_y	ground_torque1_z	ground_torque2_x	ground_torque2_y	ground_torque2_z	
19.04326600000000	-4.86201400000000	704.55452900000000	35.31140400000000	0.25063500000000	0.00000000000000	0.08910600000000	0.00000000000000	0.00000000000000	0.00000000000000	0.00000000000000	0.00000000000000	0.00000000000000	0.00000000000000	19.17442700000000	0.00000000000000	0.00000000000000	0.00000000000000	0.00000000000000	
19.04492900000000	-5.46107100000000	706.34369100000004	35.44786700000000	0.25022300000000	0.00000000000000	0.08913300000000	0.00000000000000	0.00000000000000	0.00000000000000	0.00000000000000	0.00000000000000	0.00000000000000	0.00000000000000	19.33021300000000	0.00000000000000	0.00000000000000	0.00000000000000	0.00000000000000	
19.04659700000000	-6.07101500000000	708.16789000000006	35.58833700000000	0.24979900000000	0.00000000000000	0.08916000000000	0.00000000000000	0.00000000000000	0.00000000000000	0.00000000000000	0.00000000000000	0.00000000000000	0.00000000000000	19.48927100000000	0.00000000000000	0.00000000000000	0.00000000000000	0.00000000000000	
19.04826000000000	-6.69190000000000	710.02509599999996	35.73265100000000	0.24935800000000	0.00000000000000	0.08918800000000	0.00000000000000	0.00000000000000	0.00000000000000	0.00000000000000	0.00000000000000	0.00000000000000	0.00000000000000	19.65136200000000	0.00000000000000	0.00000000000000	0.00000000000000	0.00000000000000	
19.04992900000000	-7.32372800000000	711.91332299999999	35.88064900000000	0.24889900000000	0.00000000000000	0.08921700000000	0.00000000000000	0.00000000000000	0.00000000000000	0.00000000000000	0.00000000000000	0.00000000000000	0.00000000000000	19.81624800000000	0.00000000000000	0.00000000000000	0.00000000000000	0.00000000000000	
19.05159500000000	-7.96644900000000	713.83062700000005	36.03217400000000	0.24841800000000	0.00000000000000	0.08924700000000	0.00000000000000	0.00000000000000	0.00000000000000	0.00000000000000	0.00000000000000	0.00000000000000	0.00000000000000	19.98368600000000	0.00000000000000	0.00000000000000	0.00000000000000	0.00000000000000	
19.05325800000000	-8.61996000000000	715.77511100000004	36.18707400000000	0.24791400000000	0.00000000000000	0.08927800000000	0.00000000000000	0.00000000000000	0.00000000000000	0.00000000000000	0.00000000000000	0.00000000000000	0.00000000000000	20.15343300000000	0.00000000000000	0.00000000000000	0.00000000000000	0.00000000000000	
19.05492600000000	-9.28410700000000	717.74492299999997	36.34519900000000	0.24738400000000	0.00000000000000	0.08931100000000	0.00000000000000	0.00000000000000	0.00000000000000	0.00000000000000	0.00000000000000	0.00000000000000	0.00000000000000	20.32524700000000	0.00000000000000	0.00000000000000	0.00000000000000	0.00000000000000	
19.05659300000000	-9.95868300000000	719.73825699999998	36.50640000000000	0.24682600000000	0.00000000000000	0.08934500000000	0.00000000000000	0.00000000000000	0.00000000000000	0.00000000000000	0.00000000000000	0.00000000000000	0.00000000000000	20.49888100000000	0.00000000000000	0.00000000000000	0.00000000000000	0.00000000000000	
19.05826000000000	-10.64343000000000	721.75335099999995	36.67053500000000	0.24623800000000	0.00000000000000	0.08938000000000	0.00000000000000	0.00000000000000	0.00000000000000	0.00000000000000	0.00000000000000	0.00000000000000	0.00000000000000	20.67409100000000	0.00000000000000	0.00000000000000	0.00000000000000	0.00000000000000	
19.05992400000000	-11.33803900000000	723.78849200000002	36.83746000000000	0.24561900000000	0.00000000000000	0.08941600000000	0.00000000000000	0.00000000000000	0.00000000000000	0.00000000000000	0.00000000000000	0.00000000000000	0.00000000000000	20.85063000000000	0.00000000000000	0.00000000000000	0.00000000000000	0.00000000000000	
19.06159500000000	-12.04215000000000	725.84200899999996	37.00703600000000	0.24496700000000	0.00000000000000	0.08945400000000	0.00000000000000	0.00000000000000	0.00000000000000	0.00000000000000	0.00000000000000	0.00000000000000	0.00000000000000	21.02825300000000	0.00000000000000	0.00000000000000	0.00000000000000	0.00000000000000	
19.06326500000000	-12.75535800000000	727.91227600000002	37.17912600000000	0.24428200000000	0.00000000000000	0.08949300000000	0.00000000000000	0.00000000000000	0.00000000000000	0.00000000000000	0.00000000000000	0.00000000000000	0.00000000000000	21.20671500000000	0.00000000000000	0.00000000000000	0.00000000000000	0.00000000000000	
19.06493100000000	-13.47720500000000	729.99770699999999	37.35359600000000	0.24356200000000	0.00000000000000	0.08953400000000	0.00000000000000	0.00000000000000	0.00000000000000	0.00000000000000	0.00000000000000	0.00000000000000	0.00000000000000	21.38577100000000	0.00000000000000	0.00000000000000	0.00000000000000	0.00000000000000	
19.06659900000000	-14.20719200000000	732.09675900000002	37.53031600000000	0.24280600000000	0.00000000000000	0.08957600000000	0.00000000000000	0.00000000000000	0.00000000000000	0.00000000000000	0.00000000000000	0.00000000000000	0.00000000000000	21.56518000000000	0.00000000000000	0.00000000000000	0.00000000000000	0.00000000000000	
19.06826300000000	-14.94477300000000	734.20792800000004	37.70915500000000	0.24201400000000	0.00000000000000	0.08962000000000	0.00000000000000	0.00000000000000	0.00000000000000	0.00000000000000	0.00000000000000	0.00000000000000	0.00000000000000	21.74470000000000	0.00000000000000	0.00000000000000	0.00000000000000	0.00000000000000	
19.06992900000000	-15.68936100000000	736.32974600000000	37.88999000000000	0.24118600000000	0.00000000000000	0.08966500000000	0.00000000000000	0.00000000000000	0.00000000000000	0.00000000000000	0.00000000000000	0.00000000000000	0.00000000000000	21.92409500000000	0.00000000000000	0.00000000000000	0.00000000000000	0.00000000000000	
19.07159200000000	-16.44032900000000	738.46077900000000	38.07269900000000	0.24032200000000	0.00000000000000	0.08971200000000	0.00000000000000	0.00000000000000	0.00000000000000	0.00000000000000	0.00000000000000	0.00000000000000	0.00000000000000	22.10312800000000	0.00000000000000	0.00000000000000	0.00000000000000	0.00000000000000	
